<mxfile host="app.diagrams.net" modified="2023-07-11T11:14:30.487Z" agent="Mozilla/5.0 (Macintosh; Intel Mac OS X 10_15_7) AppleWebKit/537.36 (KHTML, like Gecko) Chrome/114.0.0.0 Safari/537.36" etag="O64Vn_FevkY2bEA7bkN6" version="21.5.2" type="github">
  <diagram name="第 1 页" id="h9U71sw_hMcetLXF0Dsy">
    <mxGraphModel dx="1004" dy="481" grid="1" gridSize="10" guides="1" tooltips="1" connect="1" arrows="1" fold="1" page="1" pageScale="1" pageWidth="827" pageHeight="1169" math="0" shadow="0">
      <root>
        <mxCell id="0" />
        <mxCell id="1" parent="0" />
        <mxCell id="Oc67MIP1XrvpiRTv9NVU-20" value="" style="rounded=0;whiteSpace=wrap;html=1;fillStyle=hatch;dashed=1;" vertex="1" parent="1">
          <mxGeometry x="120" y="130" width="670" height="340" as="geometry" />
        </mxCell>
        <mxCell id="Oc67MIP1XrvpiRTv9NVU-14" style="edgeStyle=orthogonalEdgeStyle;rounded=0;orthogonalLoop=1;jettySize=auto;html=1;entryX=0.5;entryY=0;entryDx=0;entryDy=0;" edge="1" parent="1" source="Oc67MIP1XrvpiRTv9NVU-1" target="Oc67MIP1XrvpiRTv9NVU-2">
          <mxGeometry relative="1" as="geometry" />
        </mxCell>
        <mxCell id="Oc67MIP1XrvpiRTv9NVU-15" value="&lt;font style=&quot;font-size: 15px;&quot;&gt;查看&lt;/font&gt;" style="edgeLabel;html=1;align=center;verticalAlign=middle;resizable=0;points=[];" vertex="1" connectable="0" parent="Oc67MIP1XrvpiRTv9NVU-14">
          <mxGeometry x="-0.063" y="8" relative="1" as="geometry">
            <mxPoint as="offset" />
          </mxGeometry>
        </mxCell>
        <mxCell id="Oc67MIP1XrvpiRTv9NVU-1" value="" style="shape=actor;whiteSpace=wrap;html=1;" vertex="1" parent="1">
          <mxGeometry x="340" y="60" width="40" height="60" as="geometry" />
        </mxCell>
        <mxCell id="Oc67MIP1XrvpiRTv9NVU-2" value="&lt;font style=&quot;font-size: 15px;&quot;&gt;Kibana&lt;/font&gt;" style="rounded=1;whiteSpace=wrap;html=1;" vertex="1" parent="1">
          <mxGeometry x="670" y="160" width="120" height="60" as="geometry" />
        </mxCell>
        <mxCell id="Oc67MIP1XrvpiRTv9NVU-7" style="edgeStyle=orthogonalEdgeStyle;rounded=0;orthogonalLoop=1;jettySize=auto;html=1;entryX=0;entryY=0.5;entryDx=0;entryDy=0;" edge="1" parent="1" source="Oc67MIP1XrvpiRTv9NVU-3" target="Oc67MIP1XrvpiRTv9NVU-4">
          <mxGeometry relative="1" as="geometry" />
        </mxCell>
        <mxCell id="Oc67MIP1XrvpiRTv9NVU-16" value="&lt;font style=&quot;font-size: 15px;&quot;&gt;f&lt;/font&gt;" style="edgeLabel;html=1;align=center;verticalAlign=middle;resizable=0;points=[];" vertex="1" connectable="0" parent="Oc67MIP1XrvpiRTv9NVU-7">
          <mxGeometry x="-0.1473" relative="1" as="geometry">
            <mxPoint as="offset" />
          </mxGeometry>
        </mxCell>
        <mxCell id="Oc67MIP1XrvpiRTv9NVU-17" value="&lt;font style=&quot;font-size: 15px;&quot;&gt;发送&lt;/font&gt;" style="edgeLabel;html=1;align=center;verticalAlign=middle;resizable=0;points=[];" vertex="1" connectable="0" parent="Oc67MIP1XrvpiRTv9NVU-7">
          <mxGeometry x="-0.1196" y="-3" relative="1" as="geometry">
            <mxPoint y="1" as="offset" />
          </mxGeometry>
        </mxCell>
        <mxCell id="Oc67MIP1XrvpiRTv9NVU-3" value="&lt;font style=&quot;font-size: 15px;&quot;&gt;日志文件&lt;/font&gt;" style="shape=cylinder3;whiteSpace=wrap;html=1;boundedLbl=1;backgroundOutline=1;size=15;" vertex="1" parent="1">
          <mxGeometry x="160" y="360" width="60" height="80" as="geometry" />
        </mxCell>
        <mxCell id="Oc67MIP1XrvpiRTv9NVU-8" style="edgeStyle=orthogonalEdgeStyle;rounded=0;orthogonalLoop=1;jettySize=auto;html=1;entryX=0;entryY=0.5;entryDx=0;entryDy=0;" edge="1" parent="1" source="Oc67MIP1XrvpiRTv9NVU-4" target="Oc67MIP1XrvpiRTv9NVU-5">
          <mxGeometry relative="1" as="geometry" />
        </mxCell>
        <mxCell id="Oc67MIP1XrvpiRTv9NVU-18" value="" style="edgeStyle=orthogonalEdgeStyle;rounded=0;orthogonalLoop=1;jettySize=auto;html=1;" edge="1" parent="1" source="Oc67MIP1XrvpiRTv9NVU-4" target="Oc67MIP1XrvpiRTv9NVU-5">
          <mxGeometry relative="1" as="geometry" />
        </mxCell>
        <mxCell id="Oc67MIP1XrvpiRTv9NVU-19" value="&lt;font style=&quot;font-size: 15px;&quot;&gt;收集&lt;/font&gt;" style="edgeStyle=orthogonalEdgeStyle;rounded=0;orthogonalLoop=1;jettySize=auto;html=1;" edge="1" parent="1" source="Oc67MIP1XrvpiRTv9NVU-4" target="Oc67MIP1XrvpiRTv9NVU-5">
          <mxGeometry relative="1" as="geometry" />
        </mxCell>
        <mxCell id="Oc67MIP1XrvpiRTv9NVU-4" value="&lt;font style=&quot;font-size: 15px;&quot;&gt;kafka&lt;/font&gt;" style="rounded=1;whiteSpace=wrap;html=1;" vertex="1" parent="1">
          <mxGeometry x="320" y="280" width="120" height="60" as="geometry" />
        </mxCell>
        <mxCell id="Oc67MIP1XrvpiRTv9NVU-9" value="&lt;font style=&quot;font-size: 15px;&quot;&gt;存储&lt;/font&gt;" style="edgeStyle=orthogonalEdgeStyle;rounded=0;orthogonalLoop=1;jettySize=auto;html=1;entryX=0;entryY=0.5;entryDx=0;entryDy=0;" edge="1" parent="1" source="Oc67MIP1XrvpiRTv9NVU-5" target="Oc67MIP1XrvpiRTv9NVU-6">
          <mxGeometry relative="1" as="geometry" />
        </mxCell>
        <mxCell id="Oc67MIP1XrvpiRTv9NVU-5" value="&lt;font style=&quot;font-size: 15px;&quot;&gt;logstash&lt;/font&gt;" style="rounded=1;whiteSpace=wrap;html=1;" vertex="1" parent="1">
          <mxGeometry x="500" y="280" width="120" height="60" as="geometry" />
        </mxCell>
        <mxCell id="Oc67MIP1XrvpiRTv9NVU-13" value="&lt;font style=&quot;font-size: 15px;&quot;&gt;展示&lt;/font&gt;" style="edgeStyle=orthogonalEdgeStyle;rounded=0;orthogonalLoop=1;jettySize=auto;html=1;" edge="1" parent="1" source="Oc67MIP1XrvpiRTv9NVU-6" target="Oc67MIP1XrvpiRTv9NVU-2">
          <mxGeometry relative="1" as="geometry" />
        </mxCell>
        <mxCell id="Oc67MIP1XrvpiRTv9NVU-6" value="&lt;font style=&quot;font-size: 15px;&quot;&gt;ElasticSearch&lt;/font&gt;" style="rounded=1;whiteSpace=wrap;html=1;" vertex="1" parent="1">
          <mxGeometry x="670" y="280" width="120" height="60" as="geometry" />
        </mxCell>
      </root>
    </mxGraphModel>
  </diagram>
</mxfile>
